<svg width="97" height="96" viewBox="0 0 97 96" fill="none" xmlns="http://www.w3.org/2000/svg">
<g clip-path="url(#clip0_16108_103273)">
<path d="M46.5821 24.3061L46.1962 24.373L45.8474 24.4324C45.6173 24.4696 45.3873 24.4993 45.1572 24.5291C44.7045 24.5811 44.2518 24.6257 43.8066 24.648C42.916 24.7 42.0255 24.7074 41.1498 24.648C40.2741 24.5885 39.3984 24.4993 38.545 24.3284C37.6841 24.1723 36.853 23.9419 36.0144 23.6817L35.903 23.6446C34.1591 23.0946 33.6099 20.9465 34.6786 18.858C35.7472 16.7694 38.0329 15.5207 39.7769 16.0781C40.237 16.2268 40.6303 16.4944 40.9123 16.8363C41.3131 17.3194 41.7361 17.7951 42.211 18.2262C42.6786 18.6721 43.198 19.0661 43.7398 19.4377C44.2815 19.8168 44.8678 20.1438 45.4763 20.4411C45.7806 20.5898 46.0923 20.7235 46.4114 20.8499C46.5672 20.9094 46.7305 20.9763 46.8938 21.0283L47.1312 21.11C47.2055 21.1398 47.3019 21.1621 47.339 21.1844L47.7027 21.3925C48.3112 21.7418 48.5635 22.6189 48.0366 23.3919C47.7101 23.875 47.0348 24.2169 46.5747 24.3061H46.5821Z" fill="#FDBC2D"/>
<path d="M65.1492 16.2209L65.1269 16.6149L65.0972 16.9716C65.0749 17.2095 65.0527 17.4325 65.023 17.6629C64.9636 18.1163 64.8968 18.5622 64.8152 19.0007C64.6519 19.8778 64.4442 20.7474 64.177 21.5873C63.9098 22.4272 63.6056 23.2522 63.2419 24.0401C62.8857 24.8428 62.4627 25.5935 62.0026 26.3442L61.9432 26.4482C60.9859 28.0165 58.7818 28.0314 57.0082 26.4928C55.2419 24.9543 54.5814 22.4346 55.5388 20.8663C55.7911 20.4501 56.1473 20.1379 56.548 19.9447C57.1121 19.6697 57.6761 19.3724 58.203 19.0156C58.7447 18.6663 59.2493 18.2575 59.7466 17.8264C60.2438 17.3879 60.6965 16.8973 61.1343 16.377C61.3495 16.1169 61.5573 15.8419 61.7577 15.5669C61.8542 15.4256 61.9506 15.2844 62.0397 15.1432L62.1733 14.9276C62.2178 14.8608 62.2623 14.779 62.292 14.7418L62.5814 14.4371C63.0638 13.9317 63.9766 13.8945 64.6 14.5932C64.9859 15.0243 65.164 15.7675 65.1343 16.2358L65.1492 16.2209Z" fill="#FDBC2D"/>
<path d="M59.9468 17.1775L60.0729 17.5491L60.1768 17.891C60.2511 18.114 60.303 18.337 60.3698 18.56C60.4885 18.9985 60.5924 19.4445 60.6815 19.883C60.8596 20.76 60.9932 21.6445 61.0525 22.5216C61.1193 23.3986 61.149 24.2757 61.0971 25.1453C61.0674 26.0223 60.9561 26.8771 60.8076 27.7393L60.7854 27.8582C60.4811 29.6643 58.4403 30.5117 56.2288 29.7461C54.0173 28.9805 52.4663 26.8845 52.7705 25.0784C52.8522 24.5953 53.0674 24.1791 53.3568 23.8446C53.7724 23.3838 54.188 22.8932 54.5442 22.3581C54.9152 21.8303 55.2344 21.2655 55.5312 20.6708C55.828 20.0762 56.0729 19.4519 56.2807 18.8053C56.3846 18.4856 56.4737 18.1512 56.5553 17.8167C56.5924 17.6532 56.6295 17.4822 56.6592 17.3187L56.7037 17.0734C56.7186 16.9991 56.726 16.9025 56.7483 16.8579L56.9041 16.4714C57.1639 15.8173 57.995 15.4457 58.8336 15.8545C59.3531 16.1146 59.7909 16.7315 59.9394 17.1775H59.9468Z" fill="#FDBC2D"/>
<path d="M54.8487 21.3119L55.1233 21.5944L55.3682 21.8545C55.5314 22.0255 55.6799 22.1964 55.8357 22.3674C56.1326 22.7093 56.422 23.0586 56.6966 23.4154C57.2383 24.1289 57.7429 24.8573 58.1882 25.6229C58.6335 26.381 59.0416 27.1614 59.383 27.9642C59.7392 28.7669 60.0138 29.5845 60.2661 30.4244L60.3032 30.5359C60.8227 32.2974 59.3608 33.9549 57.0379 34.2373C54.7077 34.5198 52.3997 33.3305 51.8802 31.569C51.7392 31.1007 51.7467 30.6325 51.8654 30.2014C52.0361 29.5993 52.1993 28.9824 52.281 28.3432C52.3849 27.704 52.422 27.0574 52.4294 26.3959C52.4294 25.7344 52.3774 25.0654 52.281 24.3965C52.2364 24.062 52.1697 23.7276 52.0954 23.3931C52.0583 23.2296 52.0212 23.0586 51.9693 22.8951L51.9025 22.6498C51.8802 22.5755 51.8505 22.4863 51.8431 22.4343L51.8134 22.0181C51.7615 21.3194 52.3478 20.6133 53.2754 20.6133C53.8543 20.6133 54.5222 20.9775 54.8487 21.3119Z" fill="#FDBC2D"/>
<path d="M53.4835 27.7924L53.758 28.0749L54.0029 28.335C54.1662 28.506 54.3146 28.6769 54.4705 28.8479C54.7673 29.1898 55.0567 29.5391 55.3313 29.8959C55.8731 30.6094 56.3777 31.3378 56.823 32.1034C57.2682 32.8615 57.6764 33.6419 58.0178 34.4446C58.374 35.2474 58.6486 36.0649 58.9009 36.9048L58.938 37.0163C59.4575 38.7779 57.9955 40.4353 55.6727 40.7178C53.3425 41.0002 51.0345 39.811 50.515 38.0495C50.374 37.5812 50.3814 37.113 50.5002 36.6819C50.6708 36.0798 50.8341 35.4629 50.9157 34.8237C51.0196 34.1845 51.0567 33.5379 51.0642 32.8763C51.0642 32.2148 51.0122 31.5459 50.9157 30.877C50.8712 30.5425 50.8044 30.208 50.7302 29.8736C50.6931 29.71 50.656 29.5391 50.6041 29.3756L50.5373 29.1303C50.515 29.056 50.4853 28.9668 50.4779 28.9147L50.4482 28.4985C50.3963 27.7999 50.9825 27.0938 51.9102 27.0938C52.489 27.0938 53.1569 27.4579 53.4835 27.7924Z" fill="#FDBC2D"/>
<path d="M71.9315 15.9247L71.8424 16.3038L71.7608 16.6531C71.7014 16.8835 71.6421 17.0991 71.5827 17.322C71.4565 17.7606 71.3155 18.1917 71.1671 18.6153C70.8628 19.4552 70.5215 20.2802 70.1207 21.0607C69.72 21.8411 69.2896 22.6141 68.7998 23.3276C68.3174 24.0634 67.7756 24.7398 67.2116 25.4013L67.1374 25.4905C65.9426 26.8804 63.7608 26.5459 62.2617 24.7398C60.7627 22.9337 60.5178 20.3397 61.7126 18.9498C62.0317 18.5782 62.4324 18.3329 62.8554 18.1991C63.4565 18.0207 64.0577 17.82 64.6439 17.545C65.2376 17.2923 65.8016 16.9653 66.3582 16.6159C66.9148 16.2666 67.4491 15.8578 67.9612 15.4119C68.2209 15.1889 68.4658 14.951 68.7033 14.7132C68.822 14.5943 68.9408 14.4679 69.0521 14.3415L69.2154 14.1557C69.2673 14.0963 69.3267 14.0219 69.3638 13.9922L69.6977 13.7395C70.2543 13.3158 71.1597 13.4273 71.6643 14.2152C71.976 14.7057 72.028 15.4639 71.9315 15.9247Z" fill="#FDBC2D"/>
<path d="M77.0603 19.5431L76.8154 19.8478L76.5854 20.1228C76.4369 20.3012 76.2811 20.4722 76.1253 20.6431C75.8136 20.9776 75.5019 21.3046 75.1828 21.6168C74.5371 22.2411 73.8692 22.8283 73.1642 23.356C72.4592 23.8837 71.7394 24.3817 70.9824 24.8128C70.2329 25.2588 69.4462 25.623 68.6447 25.9723L68.5334 26.0169C66.8488 26.7379 65.0381 25.4669 64.4889 23.1851C63.9397 20.9033 64.86 18.4654 66.552 17.7518C66.9972 17.5586 67.4722 17.514 67.91 17.5809C68.526 17.6849 69.1568 17.7741 69.8024 17.789C70.4481 17.8187 71.0937 17.789 71.7468 17.7147C72.4073 17.6478 73.0603 17.514 73.7134 17.343C74.0399 17.2613 74.3664 17.1572 74.693 17.0457C74.8488 16.9863 75.0121 16.9268 75.1679 16.8673L75.398 16.7707C75.4722 16.741 75.5538 16.6964 75.6058 16.689L76.0139 16.6072C76.7041 16.4734 77.4685 16.9788 77.5724 17.9079C77.6392 18.4877 77.3497 19.1863 77.0603 19.558V19.5431Z" fill="#FDBC2D"/>
<path d="M80.133 25.0043L79.7694 25.1529L79.4429 25.2867C79.2202 25.3759 79.0125 25.4502 78.7972 25.532C78.3668 25.6807 77.9364 25.8219 77.506 25.9408C76.6451 26.1861 75.7768 26.3868 74.9086 26.5205C74.0403 26.6543 73.1646 26.751 72.2963 26.7733C71.4206 26.8104 70.5598 26.7658 69.6915 26.6915H69.5728C67.7471 26.5205 66.7453 24.5509 67.339 22.2765C67.9327 20.0021 69.8919 18.2926 71.71 18.4561C72.1924 18.5007 72.6303 18.6791 72.9865 18.9467C73.4837 19.3258 73.9958 19.7048 74.5598 20.017C75.1089 20.3515 75.7026 20.619 76.3112 20.8717C76.9197 21.1244 77.5653 21.3103 78.2258 21.4738C78.5523 21.5555 78.8937 21.615 79.2277 21.6745C79.3984 21.6968 79.569 21.7265 79.7323 21.7414L79.9846 21.7637C80.0588 21.7711 80.1627 21.7785 80.2073 21.786L80.608 21.9123C81.2759 22.1204 81.7138 22.9231 81.3724 23.7928C81.1572 24.3354 80.5709 24.8185 80.1405 25.0043H80.133Z" fill="#FDBC2D"/>
<path d="M79.7543 30.5637H79.361L79.0048 30.5488C78.7673 30.5488 78.5447 30.5265 78.3146 30.5116C77.8619 30.4745 77.4093 30.4373 76.964 30.3778C76.0809 30.2589 75.1978 30.0954 74.3517 29.8724C73.5057 29.6494 72.6597 29.3893 71.8582 29.0623C71.0419 28.7501 70.2701 28.3636 69.4983 27.9399L69.3944 27.8805C67.784 27.0034 67.6504 24.7959 69.0976 22.9526C70.5447 21.1019 73.0234 20.3215 74.6337 21.1911C75.0568 21.4215 75.3907 21.7634 75.6059 22.1499C75.9102 22.6999 76.2293 23.2499 76.6152 23.7628C76.9863 24.2905 77.4241 24.7736 77.8842 25.2419C78.3443 25.7176 78.8564 26.1487 79.3981 26.5575C79.6653 26.7656 79.9473 26.9514 80.2367 27.1372C80.3777 27.2264 80.5261 27.3156 80.6746 27.3973L80.8898 27.5237C80.9566 27.5609 81.0456 27.6055 81.0827 27.6352L81.4018 27.9102C81.9362 28.371 82.0178 29.2778 81.3499 29.9393C80.9343 30.3481 80.207 30.5637 79.7395 30.5562L79.7543 30.5637Z" fill="#FDBC2D"/>
<path d="M76.2955 35.8135L75.969 35.5979L75.6721 35.3973C75.4792 35.2635 75.2937 35.1297 75.1081 34.9959C74.7445 34.7209 74.3883 34.4459 74.0469 34.156C73.3642 33.5763 72.7111 32.9668 72.1174 32.3202C71.5237 31.6735 70.9523 31.0046 70.4551 30.291C69.9356 29.5849 69.4903 28.8417 69.0673 28.0761L69.0079 27.9721C68.1248 26.3666 69.2009 24.4341 71.4124 23.6611C73.6239 22.8881 76.1322 23.5571 77.0228 25.1625C77.2603 25.5862 77.3493 26.0544 77.3271 26.493C77.2899 27.1173 77.2603 27.7565 77.3122 28.3957C77.3493 29.0424 77.4458 29.6816 77.5868 30.3282C77.7204 30.9748 77.9207 31.6141 78.1582 32.2533C78.277 32.5729 78.4105 32.885 78.5515 33.1972C78.6258 33.3533 78.7 33.5094 78.7816 33.658L78.9003 33.881C78.9374 33.9479 78.9894 34.0297 79.0042 34.0743L79.123 34.4756C79.3233 35.1446 78.9078 35.9621 77.9875 36.1554C77.4161 36.2818 76.6888 36.0662 76.2955 35.8061V35.8135Z" fill="#FDBC2D"/>
<path d="M71.228 38.3122L71.0499 37.9628L70.894 37.6432C70.7901 37.4277 70.6937 37.227 70.5972 37.0115C70.4117 36.5952 70.241 36.179 70.0851 35.7553C69.7735 34.9155 69.4989 34.0681 69.2985 33.2134C69.0981 32.3586 68.9274 31.4964 68.8384 30.6268C68.7271 29.7572 68.7048 28.8876 68.7122 28.018V27.899C68.7271 26.0632 70.6046 24.9037 72.9126 25.3125C75.2206 25.7213 77.0833 27.5348 77.0684 29.3707C77.0684 29.8538 76.92 30.3072 76.6825 30.6863C76.3412 31.214 76.0072 31.7566 75.7401 32.3438C75.4581 32.9235 75.228 33.533 75.035 34.1648C74.8347 34.7965 74.6937 35.4506 74.5898 36.1195C74.5378 36.454 74.5007 36.7959 74.471 37.1378C74.4636 37.3088 74.4488 37.4797 74.4414 37.6507V37.9034C74.4339 37.9851 74.4414 38.0818 74.4265 38.1264L74.3375 38.5352C74.189 39.219 73.4247 39.7244 72.5267 39.4494C71.9701 39.2784 71.4432 38.7358 71.2206 38.3196L71.228 38.3122Z" fill="#FDBC2D"/>
<path d="M65.6089 38.9705L65.5124 38.5915L65.4308 38.2421C65.3789 38.0117 65.3343 37.7887 65.2898 37.5658C65.2082 37.1198 65.134 36.6664 65.0746 36.2279C64.9633 35.336 64.8965 34.4515 64.8965 33.5744C64.8965 32.6974 64.9262 31.8129 65.0375 30.9507C65.134 30.0811 65.3046 29.2338 65.5124 28.379L65.5421 28.2675C65.9725 26.4837 68.0727 25.7925 70.2249 26.7215C72.377 27.6506 73.7722 29.8432 73.3418 31.6271C73.2304 32.1028 72.9855 32.5041 72.6664 32.8163C72.2137 33.2474 71.7685 33.7008 71.3677 34.2062C70.9596 34.7042 70.6033 35.2468 70.262 35.8117C69.9206 36.3765 69.6386 36.986 69.3789 37.6178C69.2527 37.93 69.1414 38.257 69.0301 38.584C68.9781 38.7476 68.9262 38.9111 68.8891 39.0746L68.8223 39.3199C68.8 39.3942 68.7852 39.4908 68.7629 39.5354L68.5774 39.9145C68.2731 40.5463 67.4123 40.8584 66.6033 40.3827C66.0987 40.0854 65.7128 39.4388 65.5941 38.9854L65.6089 38.9705Z" fill="#FDBC2D"/>
<path d="M64.1614 53.4342C62.2022 53.4342 60.3024 52.4234 59.2412 50.6098C58.4545 49.2645 51.6493 37.1567 54.3952 27.5463C55.4935 23.7111 57.9425 20.6934 61.4824 18.8204C67.0037 15.8994 73.6827 17.6238 76.3692 22.6631C77.9276 25.5841 77.8534 29.0329 76.1837 31.664C74.5139 34.2952 71.59 35.6999 68.1762 35.5141C67.1002 35.4547 66.1132 35.1053 65.282 34.5405C65.8163 38.0338 67.5529 42.2407 69.0816 44.8867C70.6549 47.607 69.7273 51.1004 67.0111 52.6761C66.1132 53.1964 65.1262 53.4491 64.154 53.4491L64.1614 53.4342Z" fill="#B72026"/>
<path d="M65.2899 35.2682C64.9782 35.2682 64.6814 35.0675 64.5849 34.7479C64.5107 34.5175 62.8038 29.0471 64.1248 26.0146C65.379 23.1381 67.8576 22.603 69.6016 23.0192C71.5311 23.48 72.8076 25.0483 72.7185 26.8396C72.6072 29.0174 71.2046 30.0208 69.9578 30.0282H69.943C68.7259 30.0282 67.7983 29.1883 67.7241 28.0214C67.7018 27.6126 68.0061 27.2558 68.4217 27.2335C68.8447 27.2187 69.186 27.516 69.2083 27.9322C69.238 28.4153 69.6832 28.5417 69.9504 28.5417C70.4996 28.5417 71.1675 28.0734 71.2417 26.7653C71.3085 25.5166 70.2992 24.7139 69.2677 24.4686C68.0283 24.1713 66.3808 24.5801 65.4903 26.6166C64.5775 28.7052 65.5497 32.8749 66.0024 34.302C66.1285 34.6959 65.9133 35.1121 65.52 35.2385C65.4458 35.2608 65.3716 35.2757 65.2974 35.2757L65.2899 35.2682Z" fill="#891C1E"/>
<path d="M47.6426 29.7397L47.2567 29.8066L46.9079 29.866C46.6779 29.9032 46.4478 29.9329 46.2178 29.9626C45.7651 30.0147 45.3124 30.0593 44.8671 30.0816C43.9766 30.1336 43.086 30.141 42.2103 30.0816C41.3346 30.0221 40.459 29.9329 39.6055 29.762C38.7447 29.6059 37.9135 29.3755 37.0749 29.1153L36.9636 29.0782C35.2196 28.5281 34.6705 26.3801 35.7391 24.2915C36.8077 22.203 39.0935 20.9543 40.8374 21.5117C41.2975 21.6604 41.6909 21.928 41.9729 22.2699C42.3736 22.753 42.7966 23.2287 43.2716 23.6598C43.7391 24.1057 44.2586 24.4997 44.8003 24.8713C45.3421 25.2504 45.9283 25.5774 46.5369 25.8747C46.8411 26.0233 47.1528 26.1571 47.4719 26.2835C47.6278 26.343 47.791 26.4098 47.9543 26.4619L48.1918 26.5436C48.266 26.5734 48.3625 26.5957 48.3996 26.618L48.7632 26.8261C49.3718 27.1754 49.6241 28.0525 49.0972 28.8255C48.7706 29.3086 48.0953 29.6505 47.6352 29.7397H47.6426Z" fill="#FDBC2D"/>
<path d="M48.2735 34.1186L47.8876 34.1855L47.5388 34.2449C47.3087 34.2821 47.0787 34.3118 46.8486 34.3416C46.3959 34.3936 45.9432 34.4382 45.498 34.4605C44.6074 34.5125 43.7169 34.5199 42.8412 34.4605C41.9655 34.401 41.0898 34.3118 40.2364 34.1409C39.3755 33.9848 38.5444 33.7544 37.7058 33.4942L37.5945 33.4571C35.8505 32.9071 35.3013 30.759 36.37 28.6705C37.4386 26.5819 39.7243 25.3332 41.4683 25.8906C41.9284 26.0393 42.3217 26.3069 42.6037 26.6488C43.0045 27.1319 43.4275 27.6076 43.9024 28.0387C44.37 28.4846 44.8894 28.8786 45.4312 29.2502C45.9729 29.6293 46.5592 29.9563 47.1677 30.2536C47.472 30.4023 47.7837 30.536 48.1028 30.6624C48.2586 30.7219 48.4219 30.7888 48.5852 30.8408L48.8226 30.9225C48.8969 30.9523 48.9933 30.9746 49.0304 30.9969L49.3941 31.205C50.0026 31.5543 50.2549 32.4314 49.728 33.2044C49.4015 33.6875 48.7262 34.0294 48.2661 34.1186H48.2735Z" fill="#FDBC2D"/>
<path d="M48.2735 38.4897L47.8876 38.5566L47.5388 38.616C47.3087 38.6532 47.0787 38.6829 46.8486 38.7126C46.3959 38.7647 45.9432 38.8093 45.498 38.8316C44.6074 38.8836 43.7169 38.891 42.8412 38.8316C41.9655 38.7721 41.0898 38.6829 40.2364 38.512C39.3755 38.3559 38.5444 38.1255 37.7058 37.8653L37.5945 37.8282C35.8505 37.2782 35.3013 35.1301 36.37 33.0415C37.4386 30.953 39.7243 29.7043 41.4683 30.2617C41.9284 30.4104 42.3217 30.678 42.6037 31.0199C43.0045 31.503 43.4275 31.9787 43.9024 32.4098C44.37 32.8557 44.8894 33.2497 45.4312 33.6213C45.9729 34.0004 46.5592 34.3274 47.1677 34.6247C47.472 34.7734 47.7837 34.9071 48.1028 35.0335C48.2586 35.093 48.4219 35.1598 48.5852 35.2119L48.8226 35.2936C48.8969 35.3234 48.9933 35.3457 49.0304 35.368L49.3941 35.5761C50.0026 35.9254 50.2549 36.8025 49.728 37.5755C49.4015 38.0586 48.7262 38.4005 48.2661 38.4897H48.2735Z" fill="#FDBC2D"/>
<path d="M38.7449 18.8072C38.0177 18.8072 37.3869 18.272 37.2755 17.5287C37.1568 16.7186 37.7208 15.9605 38.5371 15.849C41.9954 15.351 42.4629 13.9239 42.4629 13.909C42.5371 13.0915 43.2644 12.482 44.0807 12.5712C44.8971 12.6455 45.4982 13.3739 45.4165 14.1915C45.3794 14.5706 44.8971 17.9375 38.9527 18.7923C38.8785 18.7997 38.8117 18.8072 38.7375 18.8072H38.7449Z" fill="#DFA000"/>
<path d="M43.9413 19.3338C43.1249 19.3338 42.457 18.6649 42.457 17.8473C42.457 17.0297 43.1249 16.3607 43.9413 16.3607C47.6222 16.3607 47.8893 14.5546 47.9116 14.1904C47.9116 13.3728 48.5721 12.7188 49.3958 12.7188C50.2121 12.7188 50.88 13.4026 50.88 14.2201C50.88 14.406 50.8429 16.056 49.4403 17.4682C48.201 18.7095 46.3531 19.3412 43.9487 19.3412L43.9413 19.3338Z" fill="#DFA000"/>
<path d="M47.6734 20.0872C46.3599 20.0872 44.8014 19.8865 42.9758 19.396C37.2616 17.85 33.4322 18.9723 33.3951 18.9872C32.6159 19.225 31.7848 18.7865 31.5399 18.0061C31.3024 17.2257 31.7328 16.3932 32.512 16.1479C32.6976 16.0885 37.1354 14.7432 43.7402 16.527C50.256 18.2885 51.7105 15.6499 51.859 15.3229C51.9703 14.6168 52.5862 14.0742 53.3283 14.0742C54.1447 14.0742 54.8126 14.7432 54.8126 15.5607C54.8126 16.304 54.2263 17.5527 52.935 18.5487C51.9035 19.344 50.2412 20.1021 47.6734 20.1021V20.0872Z" fill="#DFA000"/>
<path d="M33.572 68.9334C32.7334 68.9334 31.88 68.7476 31.0711 68.3536C26.5961 66.161 23.3456 61.8947 22.3661 56.9297C21.4829 52.4701 22.0098 45.3868 29.4829 36.9284C31.1379 35.0554 33.0525 32.3128 32.7482 29.8971C32.4662 27.6153 30.277 26.0991 30.2547 26.0842L33.379 21.3124L36.4291 16.4961C37.097 16.9198 42.9746 20.8516 44.0136 28.2322C44.7779 33.6506 42.752 39.1211 38.0024 44.4949C34.5813 48.3598 32.9931 51.9944 33.5275 54.7147C33.8763 56.4688 35.0711 57.6135 36.0729 58.104C38.9004 59.4865 40.0655 62.9055 38.6852 65.7299C37.6982 67.7516 35.6722 68.9259 33.5646 68.9259L33.572 68.9334Z" fill="#B72026"/>
<path d="M24.0288 15.0034C24.6299 14.0595 26.9824 12.4763 28.0956 14.0149C28.0956 14.0149 33.7876 10.1425 36.6225 15.1298C38.1512 17.8204 38.3219 19.5671 38.3219 19.5671C38.3219 19.5671 42.1438 21.4996 41.5724 25.0449C41.0009 28.5903 36.3182 28.8356 36.3182 28.8356C36.3182 28.8356 37.5649 32.1357 28.4369 30.5525C27.2124 30.337 25.9508 30.3816 24.7486 30.6863C23.821 30.9167 22.552 31.1397 21.0677 31.1248C18.1289 31.0951 15.4944 27.4159 17.179 25.3422C18.693 23.4841 22.3813 26.5463 23.8655 22.5401C23.8655 22.5401 23.4054 21.2245 21.2978 21.336C19.1902 21.4475 15.8952 21.7077 15.3238 18.2143C14.7523 14.721 17.6095 12.2533 20.1549 13.1601C21.2755 13.5615 22.2922 14.4608 22.923 15.1075C23.2421 15.4345 23.7839 15.3899 24.0288 15.0034Z" fill="#B72026"/>
<mask id="mask0_16108_103273" style="mask-type:luminance" maskUnits="userSpaceOnUse" x="15" y="12" width="27" height="20">
<path d="M24.0288 15.0034C24.6299 14.0595 26.9824 12.4763 28.0956 14.0149C28.0956 14.0149 33.7876 10.1425 36.6225 15.1298C38.1512 17.8204 38.3219 19.5671 38.3219 19.5671C38.3219 19.5671 42.1438 21.4996 41.5724 25.0449C41.0009 28.5903 36.3182 28.8356 36.3182 28.8356C36.3182 28.8356 37.5649 32.1357 28.4369 30.5525C27.2124 30.337 25.9508 30.3816 24.7486 30.6863C23.821 30.9167 22.552 31.1397 21.0677 31.1248C18.1289 31.0951 15.4944 27.4159 17.179 25.3422C18.693 23.4841 22.3813 26.5463 23.8655 22.5401C23.8655 22.5401 23.4054 21.2245 21.2978 21.336C19.1902 21.4475 15.8952 21.7077 15.3238 18.2143C14.7523 14.721 17.6095 12.2533 20.1549 13.1601C21.2755 13.5615 22.2922 14.4608 22.923 15.1075C23.2421 15.4345 23.7839 15.3899 24.0288 15.0034Z" fill="white"/>
</mask>
<g mask="url(#mask0_16108_103273)">
<path d="M23.866 22.5446C23.866 22.5446 24.2593 23.7933 26.6712 23.6001C28.4968 23.4514 31.0645 22.894 31.5246 24.2541C32.1109 25.9934 29.8697 26.2089 27.3242 26.2981C24.7788 26.3873 25.0088 28.186 21.3799 28.6171C18.0255 29.011 15.6656 27.9556 16.7788 24.4399C17.892 20.9243 23.866 22.5521 23.866 22.5521V22.5446Z" fill="#891C1E"/>
<path d="M29.3361 12.3858C28.8611 13.1365 28.1116 14.0284 27.5104 14.7122C26.7238 15.6041 25.5216 16.0724 24.3565 15.8271C23.4956 15.6413 22.6867 15.1136 22.6125 13.8054C22.4418 10.8844 29.3435 12.3858 29.3435 12.3858H29.3361Z" fill="#891C1E"/>
</g>
<path d="M32.5388 20.8597C33.866 20.7052 34.8246 19.5685 34.6798 18.3208C34.5349 17.073 33.3416 16.1868 32.0144 16.3413C30.6872 16.4958 29.7287 17.6326 29.8735 18.8803C30.0183 20.128 31.2116 21.0142 32.5388 20.8597Z" fill="#FFEED8"/>
<path d="M32.2084 19.2627C32.1639 19.2627 32.1193 19.2627 32.0748 19.2478C31.6741 19.1661 31.4069 18.8019 31.4811 18.4005C31.5776 17.8951 32.008 17.5755 32.4681 17.5903C32.995 17.6126 33.3958 18.0512 33.3809 18.5714L31.8967 18.5269C31.8967 18.8242 32.1193 19.062 32.4088 19.0769C32.6463 19.0694 32.8986 18.9059 32.9505 18.6458C32.8763 19.0025 32.5646 19.2627 32.2084 19.2627Z" fill="#9C6F00"/>
<path d="M45.4388 34.7292L45.6021 35.1008L45.7505 35.4353C45.847 35.6583 45.9286 35.8812 46.0177 36.1042C46.181 36.5428 46.3368 36.9887 46.4778 37.4347C46.7524 38.3192 46.9824 39.2111 47.1383 40.1104C47.3015 41.0023 47.4203 41.9091 47.4648 42.8085C47.5242 43.7153 47.5019 44.6072 47.4426 45.514V45.6329C47.3164 47.5282 45.3053 48.6134 42.9379 48.0559C40.578 47.4985 38.7598 45.514 38.8785 43.6186C38.9082 43.1132 39.0863 42.6598 39.3535 42.2882C39.732 41.7679 40.1105 41.2179 40.4221 40.6307C40.7487 40.051 41.0158 39.4341 41.2607 38.7948C41.5056 38.1556 41.6837 37.4867 41.8322 36.7955C41.9064 36.4536 41.9657 36.1042 42.0103 35.7549C42.0325 35.5839 42.0548 35.4056 42.0696 35.2272L42.0919 34.967C42.0993 34.8853 42.0919 34.7887 42.1142 34.7366L42.2329 34.3204C42.4333 33.6217 43.2496 33.146 44.155 33.4805C44.719 33.6886 45.2385 34.2832 45.4388 34.7218V34.7292Z" fill="#FDBC2D"/>
<path d="M40.4076 37.5534L40.5709 37.925L40.7193 38.2595C40.8158 38.4825 40.8974 38.7055 40.9864 38.9284C41.1497 39.367 41.3056 39.8129 41.4466 40.2589C41.7211 41.1434 41.9512 42.0353 42.107 42.9346C42.2703 43.8266 42.389 44.7333 42.4336 45.6327C42.4929 46.5395 42.4707 47.4314 42.4113 48.3382V48.4571C42.2851 50.3524 40.274 51.4376 37.9067 50.8801C35.5467 50.3227 33.7286 48.3382 33.8473 46.4428C33.877 45.9374 34.0551 45.484 34.3223 45.1124C34.7007 44.5921 35.0792 44.0421 35.3909 43.4549C35.7174 42.8752 35.9846 42.2583 36.2295 41.6191C36.4744 40.9799 36.6525 40.3109 36.8009 39.6197C36.8751 39.2778 36.9345 38.9284 36.979 38.5791C37.0013 38.4082 37.0236 38.2298 37.0384 38.0514L37.0607 37.7913C37.0681 37.7095 37.0607 37.6129 37.0829 37.5608L37.2017 37.1446C37.402 36.4459 38.2184 35.9703 39.1237 36.3047C39.6877 36.5128 40.2072 37.1074 40.4076 37.546V37.5534Z" fill="#FDBC2D"/>
<path d="M36.1696 40.7873L36.4293 41.0994L36.6594 41.3893C36.8152 41.5826 36.9488 41.7684 37.0972 41.9616C37.3718 42.3407 37.6464 42.7272 37.8913 43.1211C38.3885 43.9015 38.8486 44.7043 39.2419 45.5219C39.6352 46.3394 39.9915 47.1793 40.2735 48.0341C40.5703 48.8888 40.7855 49.7585 40.971 50.6429L40.9933 50.7619C41.3792 52.62 39.7317 54.2032 37.305 54.2998C34.8783 54.3964 32.6 52.9619 32.2141 51.1038C32.1102 50.6132 32.1547 50.1227 32.318 49.6916C32.548 49.0895 32.7633 48.4577 32.9043 47.8111C33.0675 47.1645 33.1566 46.4955 33.2234 45.8192C33.2902 45.1354 33.2827 44.4441 33.2456 43.738C33.2234 43.3887 33.1863 43.0394 33.1417 42.6826C33.1121 42.5116 33.0898 42.3333 33.0601 42.1623L33.0082 41.9096C32.9933 41.8278 32.9636 41.7312 32.9636 41.6866V41.2555C32.9636 40.5271 33.6315 39.8508 34.5963 39.9325C35.1974 39.9845 35.8505 40.4156 36.1621 40.7873H36.1696Z" fill="#FDBC2D"/>
<path d="M32.6894 45.6099L33.0159 45.8477L33.3128 46.0707C33.5057 46.2194 33.6913 46.368 33.8768 46.5167C34.2404 46.8214 34.5892 47.1261 34.9306 47.4457C35.6059 48.0849 36.2441 48.7465 36.823 49.4451C37.4018 50.1438 37.9584 50.8722 38.4334 51.6303C38.9306 52.3884 39.3536 53.1837 39.7469 53.9939L39.7989 54.1054C40.63 55.8149 39.413 57.7548 37.0827 58.4312C34.7525 59.115 32.1922 58.2825 31.3684 56.573C31.1458 56.1196 31.079 55.6365 31.1235 55.1757C31.1978 54.529 31.2571 53.875 31.2423 53.206C31.2423 52.5371 31.1681 51.8682 31.0642 51.1918C30.9603 50.5154 30.7896 49.839 30.5818 49.1701C30.4779 48.8356 30.3517 48.5012 30.2256 48.1741C30.1588 48.0106 30.092 47.8471 30.0178 47.691L29.9065 47.4532C29.8768 47.3788 29.8248 47.2897 29.81 47.2451L29.7061 46.8214C29.5354 46.1153 30.0104 45.2977 30.9677 45.1416C31.5614 45.045 32.3035 45.3051 32.6968 45.595L32.6894 45.6099Z" fill="#FDBC2D"/>
<path d="M30.7667 51.8071L31.1229 52.0077L31.442 52.1936C31.6498 52.3199 31.8502 52.4463 32.0505 52.5726C32.4438 52.8328 32.8372 53.0929 33.2082 53.3679C33.9503 53.9179 34.6702 54.4977 35.3307 55.122C35.9912 55.7464 36.6294 56.4004 37.1934 57.0991C37.7797 57.7903 38.2917 58.5262 38.7815 59.2917L38.8483 59.3958C39.8724 60.9938 38.9002 63.0601 36.6739 64.0189C34.4476 64.9777 31.8056 64.4574 30.7741 62.8594C30.4995 62.4357 30.3733 61.9601 30.3659 61.5067C30.3659 60.86 30.3437 60.1985 30.2472 59.537C30.1656 58.8755 30.0171 58.2214 29.8316 57.5599C29.6461 56.8984 29.3938 56.2518 29.1117 55.6126C28.9707 55.293 28.8075 54.9808 28.6368 54.6686C28.5477 54.5125 28.4661 54.3565 28.3696 54.2152L28.2286 53.9923C28.1841 53.9254 28.1247 53.8436 28.1099 53.799L27.954 53.3902C27.7017 52.7138 28.0728 51.8442 29.0079 51.5692C29.5867 51.3983 30.3511 51.5692 30.7741 51.8071H30.7667Z" fill="#FDBC2D"/>
<path d="M29.5803 57.5554L29.9811 57.6371L30.3373 57.7115C30.5748 57.7635 30.8048 57.823 31.0349 57.8824C31.4876 58.0013 31.9403 58.1351 32.3781 58.2764C33.2538 58.5662 34.1147 58.9007 34.9384 59.2872C35.7622 59.6737 36.5636 60.0974 37.3206 60.5879C38.0924 61.0636 38.8048 61.6062 39.5098 62.1785L39.6063 62.2528C41.0757 63.4495 40.7937 65.7239 38.9681 67.3293C37.1425 68.9348 34.4783 69.2618 33.0015 68.0651C32.6082 67.7455 32.341 67.3367 32.1926 66.9057C31.9922 66.2887 31.7622 65.6644 31.4653 65.0772C31.1833 64.4752 30.8345 63.8954 30.456 63.3305C30.0776 62.7582 29.6397 62.2231 29.1648 61.7028C28.9273 61.4427 28.675 61.1974 28.4226 60.9521C28.2965 60.8332 28.1629 60.7143 28.0293 60.6028L27.8289 60.4318C27.7696 60.3798 27.6879 60.3203 27.6583 60.2832L27.3837 59.9413C26.931 59.3764 27.02 58.4324 27.8215 57.8899C28.3187 57.548 29.098 57.4736 29.5803 57.5703V57.5554Z" fill="#FDBC2D"/>
<path d="M30.9605 63.2155L31.3612 63.1858L31.7249 63.1635C31.9698 63.1487 32.1998 63.1412 32.4447 63.1338C32.9122 63.1264 33.3872 63.1264 33.8473 63.1412C34.7749 63.1784 35.6878 63.2601 36.5857 63.4014C37.4837 63.55 38.3742 63.7358 39.2351 63.9885C40.1108 64.2338 40.9419 64.5534 41.7731 64.9102L41.8844 64.9548C43.6284 65.698 43.9846 67.9576 42.6711 70.009C41.3649 72.053 38.8863 73.1084 37.1423 72.3651C36.6822 72.1644 36.3037 71.8523 36.044 71.4732C35.6803 70.9381 35.2944 70.4029 34.8417 69.9124C34.4039 69.4069 33.9141 68.9535 33.3872 68.5076C32.8677 68.0691 32.2963 67.6677 31.6952 67.3035C31.3983 67.1177 31.0866 66.9467 30.7749 66.7906C30.6191 66.7163 30.4558 66.6346 30.3 66.5602L30.0625 66.4562C29.9883 66.419 29.8918 66.3893 29.8547 66.3596L29.4985 66.1068C28.9048 65.6906 28.7341 64.7541 29.3501 64.0108C29.736 63.55 30.4633 63.2601 30.9456 63.2155H30.9605Z" fill="#FDBC2D"/>
<path d="M50.278 33.8674L50.3374 34.2688L50.3819 34.633C50.4116 34.8783 50.4338 35.1087 50.4561 35.3465C50.4932 35.8148 50.5229 36.2831 50.5303 36.7513C50.5452 37.6804 50.5229 38.602 50.4264 39.5088C50.3299 40.4156 50.1964 41.315 49.9886 42.192C49.7956 43.0765 49.521 43.9312 49.2168 44.786L49.1722 44.8975C48.534 46.6813 46.3003 47.1719 44.1852 45.9752C42.0702 44.786 40.8754 42.3704 41.5136 40.5866C41.6843 40.1109 41.9811 39.7244 42.3374 39.4345C42.8494 39.0406 43.3615 38.6169 43.8216 38.1412C44.2965 37.673 44.727 37.1527 45.1351 36.6101C45.5433 36.0601 45.9069 35.4729 46.2409 34.8486C46.4042 34.5364 46.56 34.2168 46.701 33.8972C46.7678 33.7337 46.842 33.5701 46.9014 33.4066L46.9904 33.1613C47.0201 33.087 47.0498 32.9904 47.0721 32.9458L47.3021 32.5742C47.688 31.9573 48.6008 31.7268 49.38 32.3066C49.8624 32.6634 50.1964 33.3769 50.2632 33.86L50.278 33.8674Z" fill="#FDBC2D"/>
<path d="M55.4429 33.9848L55.428 34.3936L55.4058 34.7578C55.3909 35.0031 55.3686 35.2335 55.3464 35.4714C55.2944 35.9396 55.2425 36.4079 55.1609 36.8613C55.0124 37.7755 54.8195 38.6823 54.5597 39.5519C54.3 40.4215 54.0106 41.2911 53.6469 42.1087C53.2981 42.9486 52.8751 43.7365 52.4224 44.5169L52.3631 44.6209C51.4058 46.2636 49.1275 46.3304 47.2573 44.777C45.3946 43.2236 44.6525 40.6296 45.6098 38.987C45.8622 38.5485 46.2258 38.2214 46.634 38.0059C47.2054 37.7086 47.7917 37.389 48.326 37.0025C48.8751 36.6309 49.3946 36.1998 49.8993 35.7315C50.4039 35.2707 50.864 34.7504 51.3019 34.2004C51.5245 33.9254 51.7249 33.6429 51.9252 33.3456C52.0217 33.197 52.1182 33.0483 52.2147 32.8997L52.3482 32.6767C52.3928 32.6098 52.4373 32.5206 52.467 32.4834L52.7564 32.1638C53.2462 31.6287 54.1887 31.5692 54.8492 32.2753C55.2573 32.7139 55.4577 33.4794 55.4429 33.9625V33.9848Z" fill="#FDBC2D"/>
<path d="M60.519 35.3087L60.4002 35.6952L60.2889 36.0445C60.2147 36.275 60.1331 36.4979 60.0588 36.7283C59.8956 37.1743 59.7249 37.6128 59.5394 38.0365C59.1683 38.8838 58.7601 39.7163 58.3 40.4967C57.8399 41.2771 57.3427 42.0427 56.7861 42.7562C56.2444 43.4846 55.6358 44.1461 55.005 44.7928L54.9234 44.882C53.595 46.2421 51.3687 45.7441 49.9364 43.7819C48.5115 41.8197 48.4225 39.1217 49.7509 37.7689C50.0997 37.4121 50.5301 37.1743 50.9828 37.0702C51.6136 36.9216 52.2518 36.7581 52.8677 36.5128C53.4911 36.2898 54.0997 35.9925 54.7008 35.6655C55.3019 35.3384 55.8733 34.9519 56.4373 34.5283C56.7193 34.3127 56.9865 34.0898 57.2536 33.8519C57.3798 33.733 57.5134 33.6141 57.6396 33.4877L57.8251 33.3019C57.8844 33.2424 57.9512 33.1681 57.9883 33.1458L58.352 32.908C58.9531 32.5066 59.8882 32.685 60.3557 33.5323C60.6451 34.06 60.6525 34.8479 60.519 35.3161V35.3087Z" fill="#FDBC2D"/>
<path d="M65.8848 37.2939L65.7289 37.6655L65.5805 38C65.484 38.223 65.3801 38.4311 65.2762 38.6541C65.0685 39.0777 64.8458 39.494 64.6158 39.8953C64.1557 40.698 63.6584 41.4785 63.1093 42.2069C62.5601 42.9353 61.9887 43.6414 61.3579 44.2806C60.7345 44.9421 60.0666 45.5293 59.3616 46.1016L59.2651 46.1759C57.7957 47.38 55.6362 46.6442 54.4339 44.5259C53.2317 42.415 53.4469 39.7318 54.9163 38.5277C55.3022 38.2081 55.7623 38.0223 56.215 37.9703C56.8532 37.8959 57.5137 37.7993 58.1519 37.6284C58.7976 37.4723 59.4358 37.2493 60.0666 36.9892C60.6974 36.729 61.3134 36.4094 61.9145 36.0526C62.2187 35.8743 62.5082 35.6736 62.7976 35.4729C62.9386 35.3688 63.087 35.2648 63.2206 35.1533L63.421 34.9898C63.4878 34.9377 63.562 34.8709 63.5991 34.8486L63.985 34.6479C64.6306 34.3134 65.536 34.5958 65.9071 35.4878C66.1371 36.0452 66.0555 36.8256 65.8699 37.279L65.8848 37.2939Z" fill="#FDBC2D"/>
<path d="M69.8692 39.4388L69.6095 39.751L69.372 40.026C69.2088 40.2118 69.0529 40.3827 68.8896 40.5537C68.5631 40.8956 68.2366 41.2301 67.8952 41.5422C67.2199 42.174 66.5149 42.7686 65.7728 43.3038C65.0381 43.8389 64.2737 44.3369 63.487 44.768C62.7004 45.214 61.8841 45.5782 61.0455 45.9201L60.9342 45.9647C59.1754 46.6782 57.3275 45.3329 56.8006 42.9619C56.2737 40.5908 57.2755 38.086 59.0344 37.3725C59.5019 37.1867 59.9917 37.1421 60.4444 37.2239C61.0826 37.3428 61.7357 37.4468 62.3961 37.4691C63.064 37.5137 63.7319 37.484 64.4147 37.4245C65.0974 37.3651 65.7802 37.2387 66.4629 37.0752C66.8043 36.9935 67.1457 36.8894 67.4796 36.7853C67.6429 36.7259 67.8136 36.6738 67.9768 36.607L68.2217 36.5103C68.296 36.4806 68.385 36.436 68.437 36.4286L68.8674 36.3542C69.5798 36.2279 70.3665 36.763 70.4555 37.7293C70.5149 38.3313 70.2032 39.0523 69.8915 39.4239L69.8692 39.4388Z" fill="#FDBC2D"/>
<path d="M73.4174 45.1122L73.076 45.3277L72.7643 45.521C72.5566 45.6473 72.3562 45.7662 72.1484 45.8852C71.7402 46.1156 71.3246 46.3385 70.9016 46.5318C70.0705 46.9332 69.217 47.2974 68.3562 47.5872C67.4953 47.8771 66.6196 48.1372 65.7365 48.3082C64.8534 48.5014 63.9629 48.6055 63.0649 48.6873H62.9462C61.0538 48.8582 59.6883 47.0223 59.8887 44.6067C60.089 42.1837 61.781 40.0951 63.6734 39.9316C64.1707 39.887 64.653 39.9985 65.0612 40.2066C65.6326 40.5039 66.2263 40.8012 66.8497 41.0242C67.4731 41.2621 68.1187 41.433 68.7866 41.5817C69.4545 41.7303 70.1447 41.8121 70.8423 41.8567C71.1911 41.879 71.5473 41.8864 71.8961 41.879C72.0742 41.879 72.2523 41.8715 72.423 41.8567L72.6827 41.8418C72.7643 41.8418 72.8608 41.8195 72.9128 41.8269L73.3432 41.879C74.063 41.9682 74.6493 42.7114 74.4564 43.6628C74.3302 44.25 73.8256 44.852 73.4174 45.1196V45.1122Z" fill="#FDBC2D"/>
<path d="M74.9979 49.8074L74.612 49.9412L74.2632 50.0527C74.0331 50.127 73.803 50.1939 73.573 50.2608C73.1203 50.3872 72.6602 50.4986 72.2075 50.5953C71.3021 50.7885 70.3893 50.9372 69.4839 51.0115C68.5786 51.0858 67.6658 51.1304 66.7678 51.0858C65.8624 51.0635 64.9719 50.952 64.0813 50.8108L63.9626 50.7885C62.0925 50.4912 61.1945 48.3878 61.9663 46.0837C62.7381 43.7795 64.8828 42.1518 66.753 42.4491C67.2502 42.5309 67.688 42.7464 68.0368 43.0437C68.5192 43.4748 69.0312 43.8985 69.5804 44.2627C70.1296 44.6417 70.7159 44.9688 71.3318 45.2661C71.9478 45.5634 72.5934 45.8086 73.2613 46.0242C73.5953 46.1283 73.9366 46.2174 74.2854 46.2992C74.4561 46.3364 74.6342 46.3735 74.8049 46.4033L75.0572 46.4479C75.1389 46.4627 75.2353 46.4702 75.2799 46.4925L75.688 46.6485C76.3633 46.9087 76.7641 47.7709 76.3411 48.6405C76.0813 49.1831 75.4431 49.6439 74.983 49.8074H74.9979Z" fill="#FDBC2D"/>
<path d="M76.8455 54.0769L76.4596 54.2107L76.1108 54.3222C75.8808 54.3965 75.6507 54.4634 75.4206 54.5303C74.968 54.6567 74.5078 54.7682 74.0552 54.8648C73.1498 55.0581 72.237 55.2067 71.3316 55.281C70.4262 55.3554 69.5134 55.4 68.6154 55.3554C67.7101 55.3331 66.8195 55.2216 65.929 55.0804L65.8103 55.0581C63.9401 54.7607 63.0422 52.6573 63.814 50.3532C64.5858 48.0491 66.7305 46.4213 68.6006 46.7186C69.0978 46.8004 69.5357 47.0159 69.8845 47.3132C70.3668 47.7443 70.8789 48.168 71.4281 48.5322C71.9772 48.9113 72.5635 49.2383 73.1795 49.5356C73.7954 49.8329 74.4411 50.0782 75.109 50.2937C75.4429 50.3978 75.7843 50.487 76.1331 50.5687C76.3038 50.6059 76.4819 50.6431 76.6526 50.6728L76.9049 50.7174C76.9865 50.7323 77.083 50.7397 77.1275 50.762L77.5357 50.9181C78.211 51.1782 78.6117 52.0404 78.1887 52.91C77.929 53.4526 77.2908 53.9134 76.8307 54.0769H76.8455Z" fill="#FDBC2D"/>
<path d="M78.2186 58.0223L77.8327 58.156L77.4839 58.2675C77.2538 58.3419 77.0238 58.4088 76.7937 58.4756C76.341 58.602 75.8809 58.7135 75.4282 58.8101C74.5228 59.0034 73.61 59.152 72.7046 59.2263C71.7993 59.3007 70.8865 59.3453 69.9885 59.3007C69.0831 59.2784 68.1926 59.1669 67.302 59.0257L67.1833 59.0034C65.3132 58.7061 64.4152 56.6026 65.187 54.2985C65.9588 51.9944 68.1035 50.3666 69.9737 50.6639C70.4709 50.7457 70.9087 50.9612 71.2575 51.2586C71.7399 51.6896 72.2519 52.1133 72.8011 52.4775C73.3503 52.8566 73.9366 53.1836 74.5525 53.4809C75.1685 53.7782 75.8141 54.0235 76.482 54.239C76.816 54.3431 77.1573 54.4323 77.5061 54.514C77.6768 54.5512 77.8549 54.5884 78.0256 54.6181L78.2779 54.6627C78.3596 54.6776 78.456 54.685 78.5006 54.7073L78.9087 54.8634C79.584 55.1235 79.9848 55.9857 79.5618 56.8553C79.302 57.3979 78.6638 57.8587 78.2037 58.0223H78.2186Z" fill="#FDBC2D"/>
<path d="M64.8976 43.7734H40.5488V68.1599H64.8976V43.7734Z" fill="#891C1E"/>
<path d="M52.9706 78.4749C41.4085 78.4749 32.0059 69.0577 32.0059 57.4777C32.0059 45.8976 41.4085 36.4805 52.9706 36.4805C64.5328 36.4805 73.9354 45.8976 73.9354 57.4777C73.9354 69.0577 64.5328 78.4749 52.9706 78.4749ZM52.9706 48.7666C48.1765 48.7666 44.273 52.6762 44.273 57.4777C44.273 62.2792 48.1765 66.1887 52.9706 66.1887C57.7647 66.1887 61.6682 62.2792 61.6682 57.4777C61.6682 52.6762 57.7647 48.7666 52.9706 48.7666Z" fill="#B72026"/>
<path d="M80.9942 58.9727H15.4951C14.4008 58.9727 13.5137 59.8612 13.5137 60.9572V82.0138C13.5137 83.1099 14.4008 83.9984 15.4951 83.9984H80.9942C82.0885 83.9984 82.9756 83.1099 82.9756 82.0138V60.9572C82.9756 59.8612 82.0885 58.9727 80.9942 58.9727Z" fill="#536EE0"/>
<mask id="mask1_16108_103273" style="mask-type:luminance" maskUnits="userSpaceOnUse" x="13" y="58" width="70" height="26">
<path d="M80.9942 58.9727H15.4951C14.4008 58.9727 13.5137 59.8612 13.5137 60.9572V82.0138C13.5137 83.1099 14.4008 83.9984 15.4951 83.9984H80.9942C82.0885 83.9984 82.9756 83.1099 82.9756 82.0138V60.9572C82.9756 59.8612 82.0885 58.9727 80.9942 58.9727Z" fill="white"/>
</mask>
<g mask="url(#mask1_16108_103273)">
<path d="M13.513 66.3407C17.3862 66.3407 20.526 63.196 20.526 59.3168C20.526 55.4377 17.3862 52.293 13.513 52.293C9.63982 52.293 6.5 55.4377 6.5 59.3168C6.5 63.196 9.63982 66.3407 13.513 66.3407Z" fill="#6E89FC"/>
<path d="M20.3561 61.7164C23.1719 61.7164 25.4545 59.4302 25.4545 56.6101C25.4545 53.79 23.1719 51.5039 20.3561 51.5039C17.5404 51.5039 15.2578 53.79 15.2578 56.6101C15.2578 59.4302 17.5404 61.7164 20.3561 61.7164Z" fill="#6E89FC"/>
<path d="M83.4876 66.3407C87.3608 66.3407 90.5006 63.196 90.5006 59.3168C90.5006 55.4377 87.3608 52.293 83.4876 52.293C79.6144 52.293 76.4746 55.4377 76.4746 59.3168C76.4746 63.196 79.6144 66.3407 83.4876 66.3407Z" fill="#6E89FC"/>
<path d="M76.6452 61.7164C79.4609 61.7164 81.7435 59.4302 81.7435 56.6101C81.7435 53.79 79.4609 51.5039 76.6452 51.5039C73.8295 51.5039 71.5469 53.79 71.5469 56.6101C71.5469 59.4302 73.8295 61.7164 76.6452 61.7164Z" fill="#6E89FC"/>
</g>
</g>
<defs>
<clipPath id="clip0_16108_103273">
<rect width="84" height="72" fill="white" transform="translate(6.5 12)"/>
</clipPath>
</defs>
</svg>
