<svg width="97" height="96" viewBox="0 0 97 96" fill="none" xmlns="http://www.w3.org/2000/svg">
<path d="M62.3128 45.6836L59.7564 48.2285C58.9099 49.0712 57.7616 49.4589 56.6217 49.2819C56.5128 49.2651 56.3954 49.3072 56.32 49.3999L33.6561 77.4701C33.4633 77.6976 33.1113 77.5881 33.0777 77.2847L32.8179 75.7004C32.8095 75.5993 32.776 75.2201 32.8347 75.1443L54.7107 47.5038" fill="url(#paint0_linear_16108_103714)"/>
<path d="M39.2811 75.4488C39.2811 75.4488 36.8085 73.4938 39.3733 68.7578" stroke="#F75F31" stroke-width="2.5" stroke-miterlimit="10" stroke-linecap="round"/>
<path d="M35.744 79.9059C35.744 79.9059 33.2714 77.9508 35.8362 73.2148" stroke="#F75F31" stroke-width="2.5" stroke-miterlimit="10" stroke-linecap="round"/>
<path d="M33.4803 82.5189C33.4803 82.5189 31.0664 80.5133 33.6396 75.7773" stroke="#F75F31" stroke-width="2.5" stroke-miterlimit="10" stroke-linecap="round"/>
<path d="M69.4054 49.5338L66.9496 52.2051C66.1366 53.09 64.9967 53.5366 63.8568 53.4186C63.7478 53.4102 63.6305 53.4608 63.5634 53.5535L41.5533 82.3905C41.3689 82.6265 41.0169 82.5338 40.9666 82.2389L40.6229 80.5282C40.6062 80.4271 40.6062 80.149 40.6648 80.09L66.5557 45.3203" fill="url(#paint1_linear_16108_103714)"/>
<path d="M47.0938 80.0804C47.0938 80.0804 44.5374 78.2602 46.9261 73.4062" stroke="#F75F31" stroke-width="2.5" stroke-miterlimit="10" stroke-linecap="round"/>
<path d="M43.7324 84.7171C43.7324 84.7171 41.176 82.8969 43.5648 78.043" stroke="#F75F31" stroke-width="2.5" stroke-miterlimit="10" stroke-linecap="round"/>
<path d="M41.5611 87.4474C41.5611 87.4474 39.0633 85.5766 41.4521 80.7227" stroke="#F75F31" stroke-width="2.5" stroke-miterlimit="10" stroke-linecap="round"/>
<path d="M43.0936 53.6893C43.0936 53.6893 31.2336 64.7877 23.028 74.0995C14.8224 83.4113 12.4336 89.7652 9.29048 87.9787C7.15317 86.7652 9.95263 80.5545 9.95263 80.5545C9.95263 80.5545 6.57484 79.5686 10.2041 74.5208C10.2041 74.5208 8.10868 70.9056 13.4562 67.6697C13.4562 67.6697 12.6012 63.1275 18.5857 60.8101C18.5857 60.8101 18.4851 55.5686 23.6147 54.5573C23.6147 54.5573 22.6005 48.5068 38.8692 47.9C55.138 47.2933 43.1019 53.6809 43.1019 53.6809L43.0936 53.6893Z" fill="#FDBC2D"/>
<path d="M24.2191 55.053C23.8503 55.053 23.5151 54.8086 23.4145 54.4378C23.2888 53.9912 23.5486 53.5277 23.9928 53.3929L31.5782 51.2272C32.0224 51.1008 32.4834 51.362 32.6175 51.8086C32.7432 52.2553 32.4834 52.7187 32.0392 52.8451L24.4538 55.0109C24.3784 55.0362 24.3029 55.0446 24.2275 55.0446L24.2191 55.053Z" fill="#C98B00"/>
<path d="M19.005 61.4405C18.6529 61.4405 18.3177 61.213 18.2087 60.859C18.0662 60.4124 18.3093 59.9405 18.7535 59.7972L29.1635 56.4433C29.6077 56.3 30.0771 56.5444 30.2196 56.9911C30.3621 57.4377 30.119 57.9096 29.6748 58.0529L19.2648 61.4068C19.181 61.4321 19.0888 61.4489 19.005 61.4489V61.4405Z" fill="#C98B00"/>
<path d="M14.2696 68.0984C13.9343 68.0984 13.6158 67.8961 13.4901 67.5591C13.3225 67.1209 13.5404 66.6405 13.9762 66.472L24.9897 62.2248C25.4255 62.0563 25.9033 62.2754 26.0709 62.7136C26.2386 63.1518 26.0206 63.6321 25.5848 63.8006L14.5713 68.0478C14.4708 68.0815 14.3702 68.1068 14.2696 68.1068V68.0984Z" fill="#C98B00"/>
<path d="M10.6658 74.9438C10.3473 74.9438 10.0372 74.7584 9.90312 74.4466C9.71034 74.0253 9.90312 73.5197 10.3222 73.3343L20.003 68.927C20.4221 68.7331 20.925 68.927 21.1094 69.3483C21.3021 69.7697 21.1094 70.2753 20.6903 70.4607L11.0095 74.868C10.9005 74.9185 10.7832 74.9438 10.6658 74.9438Z" fill="#C98B00"/>
<path d="M9.95241 81.3964C9.65067 81.3964 9.36569 81.2363 9.21483 80.9498C8.9969 80.5369 9.14777 80.0313 9.55847 79.8122L14.6294 77.065C15.0317 76.8459 15.543 76.9976 15.7609 77.4105C15.9788 77.8234 15.8279 78.329 15.4172 78.5481L10.3463 81.2953C10.2206 81.3627 10.0865 81.3964 9.95241 81.3964Z" fill="#C98B00"/>
<path d="M52.2716 58.3895C52.171 58.3895 52.0704 58.3895 51.9614 58.3727C37.0924 56.8137 31.5271 38.5524 31.2924 37.7772C30.8314 36.2182 31.7114 34.5749 33.2704 34.1114C34.821 33.648 36.4554 34.5328 36.9164 36.0918C36.9583 36.2435 41.6101 51.3614 52.5733 52.5075C54.1826 52.676 55.356 54.1255 55.1884 55.7435C55.0291 57.2603 53.7551 58.3895 52.2716 58.3895Z" fill="#FDBC2D"/>
<path d="M32.8008 30.1372C32.8008 30.1372 39.5815 24.7439 44.7781 19.1147C50.1005 13.3423 51.3828 11.5979 52.8245 12.4827C54.5176 13.5192 52.2713 16.8394 52.2713 16.8394C52.2713 16.8394 55.5653 16.5782 52.7993 20.9855C52.7993 20.9855 56.1017 22.2327 51.76 26.4546C46.7729 31.3001 37.1089 35.0164 37.1089 35.0164" fill="#DFA000"/>
<path d="M34.6273 32.4302C34.3674 32.4302 34.116 32.3122 33.9484 32.0847C33.6718 31.7055 33.7556 31.183 34.1328 30.9049C45.0624 22.9161 51.6084 16.3094 51.6755 16.2504C52.0024 15.9217 52.5304 15.9217 52.8573 16.2504C53.1842 16.579 53.1842 17.1099 52.8573 17.4386C52.7903 17.506 46.1604 24.197 35.1134 32.2701C34.9625 32.3796 34.7949 32.4302 34.6189 32.4302H34.6273Z" fill="#AD7700"/>
<path d="M37.1 33.9875C36.815 33.9875 36.53 33.8359 36.3792 33.5746C36.1445 33.1701 36.2786 32.6561 36.6809 32.4201C46.6634 26.5213 51.793 21.1196 51.8432 21.0606C52.1617 20.7235 52.6898 20.7066 53.0251 21.0269C53.3603 21.3471 53.3771 21.878 53.0586 22.2151C52.849 22.4426 47.7363 27.8359 37.5274 33.8696C37.3933 33.9454 37.2508 33.9875 37.1 33.9875Z" fill="#AD7700"/>
<path d="M33.3209 41.6746C37.1862 41.6746 40.3196 38.5242 40.3196 34.6381C40.3196 30.7519 37.1862 27.6016 33.3209 27.6016C29.4557 27.6016 26.3223 30.7519 26.3223 34.6381C26.3223 38.5242 29.4557 41.6746 33.3209 41.6746Z" fill="#FDBC2D"/>
<path d="M27.7637 35.6724L8.83795 47.7229C8.5865 47.8746 8.15904 48.2623 8.44401 48.8269C8.54459 48.9954 8.83795 49.3494 9.57553 49.0713L30.8481 39.9364C31.6527 39.4392 31.5941 37.6106 30.8146 36.6331C30.0015 35.605 28.8365 35.2005 27.7637 35.6724Z" fill="#F75F31"/>
<path d="M8.83755 49.4244C8.52743 49.4244 8.22569 49.2475 8.08321 48.9441C7.88205 48.5227 8.05806 48.0171 8.47714 47.8233L28.878 37.93C28.9954 37.8626 29.1211 37.7446 29.1798 37.6098L29.2636 37.4329C29.4647 37.0115 29.9592 36.8345 30.3783 37.0368C30.7974 37.239 30.9734 37.7446 30.7723 38.1576L30.6884 38.343C30.4705 38.8064 30.0933 39.1941 29.6324 39.43L9.19796 49.3402C9.08062 49.3991 8.9549 49.4244 8.83755 49.4244Z" fill="#B02F00"/>
<path d="M35.4847 37.1846C36.7538 37.0363 37.6703 35.9455 37.5319 34.7481C37.3935 33.5508 36.2525 32.7003 34.9834 32.8487C33.7143 32.997 32.7978 34.0878 32.9362 35.2852C33.0746 36.4825 34.2156 37.3329 35.4847 37.1846Z" fill="#FFEED8"/>
<path d="M35.1655 35.7747C35.1152 35.7747 35.0649 35.7747 35.0146 35.7578C34.562 35.6736 34.2602 35.2522 34.3441 34.7972C34.453 34.241 34.8805 33.8786 35.4253 33.9123C35.9952 33.9376 36.4395 34.4179 36.4227 34.9825H35.5845L34.7464 34.9236C34.7464 35.2859 35.0146 35.5809 35.3582 35.5977C35.6851 35.5893 35.945 35.3955 36.0036 35.0837C35.9198 35.4882 35.5678 35.7831 35.1738 35.7831L35.1655 35.7747Z" fill="#9C6F00"/>
<path d="M82.2614 8.62139C75.4555 35.8742 64.4672 43.1888 56.2784 45.7253C55.1552 46.113 43.7981 47.0989 40.3281 44.0399L50.252 56.4276L61.1984 54.5568C75.4555 49.1804 83.1331 38.259 87.1479 31.0961C91.2213 23.8236 87.2987 21.6916 87.2987 21.6916C88.3464 18.8517 88.4386 16.4248 87.9274 15.304C86.9048 13.054 85.086 14.4866 85.086 14.4866C85.7314 11.318 85.8152 9.17757 84.4238 7.82925C83.6527 7.07925 82.4542 7.74498 82.253 8.62139" fill="#FDBC2D"/>
<path d="M63.026 47.1573C62.7494 47.1573 62.4812 47.0225 62.3219 46.7697C62.0705 46.3736 62.1878 45.8595 62.5818 45.6067C79.0181 35.0815 84.1393 14.7051 84.1896 14.5028C84.2986 14.0477 84.7512 13.7781 85.2038 13.8876C85.6564 13.9972 85.933 14.4522 85.8156 14.9073C85.7653 15.118 80.4933 36.1348 63.4786 47.0309C63.3361 47.1236 63.1853 47.1657 63.026 47.1657V47.1573Z" fill="#C98B00"/>
<path d="M65.5559 49.7711C65.2793 49.7711 65.0111 49.6362 64.8434 49.3834C64.592 48.9874 64.7093 48.4733 65.1033 48.2205C81.7911 37.5688 86.2166 21.7851 86.2585 21.625C86.3842 21.1784 86.8368 20.9087 87.2894 21.0351C87.7336 21.1531 88.0019 21.6166 87.8761 22.0716C87.6917 22.7458 83.2327 38.6559 66.0001 49.6531C65.8576 49.7458 65.7067 49.7879 65.5475 49.7879L65.5559 49.7711Z" fill="#C98B00"/>
<path d="M46.9395 53.1246C46.9395 53.1246 56.7208 70.7622 59.076 75.7763C62.0934 82.206 85.2602 89.6808 87.934 88.1386C90.6077 86.5965 85.9978 82.2819 85.9978 82.2819C85.9978 82.2819 88.4788 82.6864 88.7638 80.7735C89.1158 78.4308 85.8721 75.8353 85.8721 75.8353C85.8721 75.8353 88.2609 76.1049 87.7663 73.383C87.2718 70.6611 83.3325 68.8577 83.3325 68.8577C83.3325 68.8577 86.6013 65.2763 79.9714 63.06C79.9714 63.06 82.2177 59.5122 75.437 58.0965C75.437 58.0965 77.3731 50.7145 62.7807 50.9673" fill="#FDBC2D"/>
<path d="M86.266 83.4621C86.1655 83.4621 86.0649 83.4452 85.9643 83.4031C78.0353 80.3525 69.7123 78.0857 69.6285 78.0688C69.1843 77.9508 68.9161 77.4873 69.0334 77.0323C69.1508 76.5857 69.6118 76.316 70.0644 76.434C70.1482 76.4593 78.5466 78.743 86.5594 81.8272C86.9953 81.9958 87.2048 82.4761 87.0455 82.9143C86.9198 83.2514 86.6013 83.4536 86.266 83.4536V83.4621Z" fill="#C98B00"/>
<path d="M85.3183 76.6194C85.2429 76.6194 85.1591 76.611 85.0837 76.5857C74.6988 73.5183 68.4964 72.7346 68.4294 72.7262C67.9684 72.6672 67.6415 72.2458 67.7002 71.7908C67.7588 71.3273 68.1612 70.9986 68.6305 71.0576C68.8904 71.0913 75.0173 71.8582 85.553 74.9762C85.9972 75.111 86.2487 75.5745 86.123 76.0211C86.014 76.3919 85.6787 76.6279 85.3183 76.6279V76.6194Z" fill="#C98B00"/>
<path d="M83.3078 70.24C83.2491 70.24 83.1904 70.24 83.1234 70.2232C72.462 67.8552 66.4356 66.8945 66.3769 66.8861C65.9159 66.8102 65.6058 66.3805 65.6812 65.9254C65.7567 65.4704 66.1841 65.1501 66.6367 65.226C66.6954 65.2344 72.7721 66.2119 83.4838 68.5883C83.9364 68.6895 84.2214 69.1361 84.1208 69.5911C84.037 69.9872 83.6849 70.2484 83.2994 70.2484L83.3078 70.24Z" fill="#C98B00"/>
<path d="M79.6187 64.0456C79.5684 64.0456 79.5265 64.0455 79.4762 64.0371C69.5608 62.3349 63.9199 61.4416 63.8613 61.4332C63.4003 61.3573 63.0902 60.9276 63.1656 60.4725C63.241 60.009 63.6601 59.6972 64.1211 59.7731C64.1798 59.7815 69.8374 60.6832 79.7612 62.3854C80.2138 62.4613 80.5239 62.8995 80.4485 63.3545C80.3815 63.7675 80.021 64.054 79.6271 64.054L79.6187 64.0456Z" fill="#C98B00"/>
<path d="M74.9768 58.4065C74.9181 58.4065 74.8678 58.4065 74.8091 58.3896L61.9266 55.7351C61.474 55.6424 61.1806 55.1958 61.2728 54.7407C61.365 54.2857 61.8092 53.9907 62.2618 54.0834L75.1444 56.7379C75.597 56.8306 75.8904 57.2773 75.7982 57.7323C75.7143 58.1284 75.3707 58.4065 74.9768 58.4065Z" fill="#C98B00"/>
<defs>
<linearGradient id="paint0_linear_16108_103714" x1="38.9971" y1="71.5639" x2="56.947" y2="48.4618" gradientUnits="userSpaceOnUse">
<stop stop-color="#F75F31"/>
<stop offset="1" stop-color="#FDBC2D"/>
</linearGradient>
<linearGradient id="paint1_linear_16108_103714" x1="47.277" y1="71.7201" x2="67.4696" y2="48.7701" gradientUnits="userSpaceOnUse">
<stop stop-color="#F75F31"/>
<stop offset="1" stop-color="#FDBC2D"/>
</linearGradient>
</defs>
</svg>
