<svg width="97" height="96" viewBox="0 0 97 96" fill="none" xmlns="http://www.w3.org/2000/svg">
<g clip-path="url(#clip0_16108_106944)">
<path d="M35.8527 10.0296C35.87 9.49945 36.424 9.16368 36.8914 9.39341C37.5926 9.73802 38.562 10.0915 39.4276 9.99427C41.1069 9.79987 41.6955 8.14753 44.0499 7.29926C44.5865 7.10487 45.1146 7.59085 44.9934 8.15636C44.7424 9.37574 44.7683 11.0458 46.9236 10.7718C50.0657 10.3831 49.0357 6.85746 54.4716 6.00036C54.9477 5.92967 55.3459 6.3273 55.3026 6.81328C55.1987 7.97081 55.6055 9.70268 59.293 8.86325C63.9585 7.80292 64.5644 6.66307 67.1439 7.14905C67.6546 7.24625 67.897 7.85594 67.6027 8.2889C67.1093 9.01346 66.9448 10.1268 69.0482 11.2755C71.1776 12.4419 73.3848 11.6554 75.2805 14.9867C75.5315 15.4285 75.2805 15.994 74.7784 16.0823C73.7311 16.2767 72.2942 16.9836 72.6231 19.4489C72.978 22.082 75.8258 20.9952 76.423 27.5869C76.475 28.1259 75.9556 28.5324 75.4536 28.3468C74.3629 27.958 72.7962 27.8431 72.6577 30.3526C72.4586 33.8693 76.1114 34.2051 75.6786 40.3462C75.6354 41.0089 74.8217 41.2828 74.4062 40.7703C73.5493 39.7277 72.2682 38.8706 71.0391 40.6996C69.0915 43.6067 68.0181 44.075 64.7722 43.9778C64.1663 43.9601 63.8373 43.2267 64.2442 42.7673C65.0665 41.813 65.5166 40.4434 62.764 39.4714C58.964 38.1283 60.3836 43.3151 54.2292 44.5345C53.658 44.6494 53.1992 44.0573 53.4329 43.5183C54.134 41.8748 54.9304 39.2152 52.2644 40.0281C47.4603 41.5037 50.5418 43.9601 43.5132 45.6743C42.9592 45.8069 42.4745 45.259 42.6736 44.7112C43.0371 43.6686 43.141 42.3078 41.4444 41.8483C38.9169 41.1679 36.9607 41.7069 35.8441 42.2194C35.3593 42.4403 34.8053 42.0692 34.8227 41.5214L35.8614 10.0119L35.8527 10.0296Z" fill="#DA3B3B"/>
<path d="M35.8008 35.8732C35.8008 36.0146 35.8614 36.1471 35.9652 36.2355C36.7962 36.9424 40.6568 39.982 45.6166 39.6286C51.0958 39.2309 59.7171 33.5935 69.4377 39.7434C69.7493 39.9378 70.1562 39.7169 70.1562 39.337V14.6048C70.1562 14.4457 70.0782 14.2955 69.9571 14.2072C59.2757 6.54629 51.1824 12.7669 45.5993 13.1733C41.2973 13.4826 37.8695 12.2721 36.5019 11.6889C36.1903 11.5563 35.8527 11.7861 35.8527 12.1307L35.8008 35.8732Z" fill="#173AAC"/>
<path d="M39.1675 34.539C39.1675 34.6716 39.2195 34.7953 39.3147 34.8836C39.9206 35.458 42.4135 37.3931 47.8148 36.3063C51.7273 35.5198 59.0848 31.5524 66.9531 35.2813C67.2647 35.4315 67.6196 35.1929 67.6196 34.8395L67.4638 16.2219C67.4638 16.0628 67.3772 15.9126 67.2474 15.8242C59.2493 10.5579 51.8917 15.1969 47.0358 15.7801C43.331 16.2307 40.691 15.7889 39.583 15.5415C39.2887 15.4708 39.0117 15.7094 39.0117 16.0098L39.1589 34.539H39.1675Z" fill="white"/>
<path d="M41.1854 33.3133C41.1854 33.4812 41.272 33.6403 41.4191 33.7198C42.1722 34.1616 44.7517 35.3721 48.7161 34.0379C52.6805 32.7036 60.3843 30.1854 65.1796 32.5357C65.4913 32.686 65.8462 32.4474 65.8462 32.1028L65.7423 17.4437C65.7423 17.2758 65.6557 17.1256 65.5259 17.0373C59.6485 13.3173 52.291 17.1786 48.5689 17.9562C44.8122 18.7338 42.5011 18.5747 41.523 18.4334C41.2373 18.3892 40.9863 18.6189 40.9863 18.9105L41.1941 33.3133H41.1854Z" fill="#FDBC2D"/>
<path d="M43.3398 31.344C43.3398 31.5561 43.4869 31.7416 43.686 31.7947C44.5256 32.0244 46.8714 32.4839 49.7798 31.5031C52.9565 30.4339 59.3013 28.596 63.3869 29.9744C63.6985 30.0805 64.0188 29.8507 64.0101 29.515L63.837 19.0972C63.837 18.9382 63.7504 18.7791 63.6119 18.6996C59.0676 15.8986 52.4544 19.1767 49.6326 19.9013C46.326 20.7496 44.3525 20.8998 43.5215 20.9175C43.2618 20.9175 43.0541 21.1472 43.0628 21.4123L43.3398 31.344Z" fill="#B72026"/>
<path d="M35.4364 63.0554C36.9136 63.0554 38.1111 62.5332 38.1111 61.889C38.1111 61.2449 36.9136 60.7227 35.4364 60.7227C33.9592 60.7227 32.7617 61.2449 32.7617 61.889C32.7617 62.5332 33.9592 63.0554 35.4364 63.0554Z" fill="#DFA000"/>
<path d="M38.1033 60.5625H32.7539V61.8967H38.1033V60.5625Z" fill="#DFA000"/>
<path d="M35.4364 61.7116C36.9136 61.7116 38.1111 61.1894 38.1111 60.5453C38.1111 59.9011 36.9136 59.3789 35.4364 59.3789C33.9592 59.3789 32.7617 59.9011 32.7617 60.5453C32.7617 61.1894 33.9592 61.7116 35.4364 61.7116Z" fill="#FDBC2D"/>
<path d="M34.7444 6.26562L34.4414 60.0243C34.4414 60.0243 34.4414 60.042 34.4414 60.0508C34.4414 60.5015 34.8829 60.8637 35.4368 60.8637C35.9908 60.8637 36.4323 60.5015 36.4323 60.0597L36.138 6.26562H34.753H34.7444Z" fill="#FDBC2D"/>
<path d="M35.4372 9.31279C36.0443 9.31279 36.5365 8.8895 36.5365 8.36734C36.5365 7.84517 36.0443 7.42188 35.4372 7.42188C34.8301 7.42188 34.3379 7.84517 34.3379 8.36734C34.3379 8.8895 34.8301 9.31279 35.4372 9.31279Z" fill="#DFA000"/>
<path d="M35.4364 8.52712C36.1057 8.52712 36.6483 7.9614 36.6483 7.26356C36.6483 6.56571 36.1057 6 35.4364 6C34.7672 6 34.2246 6.56571 34.2246 7.26356C34.2246 7.9614 34.7672 8.52712 35.4364 8.52712Z" fill="#FDBC2D"/>
<path d="M70.1225 69.3795C68.9453 67.6212 67.1881 66.605 65.3271 66.605H59.8652L56.3682 61.3917C55.191 59.6333 53.4339 58.6172 51.5815 58.6172H36.1134C34.2091 58.6172 32.4086 59.6864 31.2314 61.5243L12.5 90.8335H84.5L70.1225 69.3707V69.3795Z" fill="#536EE0"/>
<mask id="mask0_16108_106944" style="mask-type:luminance" maskUnits="userSpaceOnUse" x="12" y="58" width="73" height="33">
<path d="M70.1225 69.3795C68.9453 67.6212 67.1881 66.605 65.3271 66.605H59.8652L56.3682 61.3917C55.191 59.6333 53.4339 58.6172 51.5815 58.6172H36.1134C34.2091 58.6172 32.4086 59.6864 31.2314 61.5243L12.5 90.8335H84.5L70.1225 69.3707V69.3795Z" fill="white"/>
</mask>
<g mask="url(#mask0_16108_106944)">
<path d="M75.5223 92.9998C75.228 92.9998 74.9337 92.8408 74.7693 92.558L58.2364 63.5315C57.9941 63.1074 58.1326 62.5684 58.5481 62.321C58.9635 62.0736 59.4916 62.2149 59.7339 62.6391L76.2667 91.6656C76.5091 92.0897 76.3706 92.6287 75.9551 92.8761C75.8166 92.9556 75.6695 92.9998 75.5223 92.9998Z" fill="#173AAC"/>
<path d="M21.4756 92.9996C21.3285 92.9996 21.1813 92.9643 21.0428 92.8848C20.6274 92.6373 20.4889 92.0983 20.7226 91.6742L33.8103 68.506C34.7971 66.7653 36.4071 65.7227 38.1383 65.7227H48.6899C50.3691 65.7227 51.9532 66.7211 52.9486 68.3912L66.7288 91.6565C66.9799 92.0718 66.8414 92.6197 66.4345 92.8671C66.019 93.1233 65.491 92.982 65.2487 92.5667L51.4684 69.3013C50.7846 68.1526 49.7719 67.4899 48.6899 67.4899H38.1383C37.039 67.4899 35.983 68.1968 35.3165 69.3896L22.2287 92.5578C22.0729 92.8406 21.7786 92.9996 21.4756 92.9996Z" fill="#173AAC"/>
<path d="M31.3518 93.0007C31.222 93.0007 31.0835 92.9653 30.9536 92.9035C30.5295 92.6826 30.3564 92.1524 30.5814 91.7106L37.2898 78.3416C38.2592 76.4153 39.9298 75.2578 41.7736 75.2578H45.3571C47.1489 75.2578 48.8022 76.3623 49.7803 78.2179L56.8608 91.6841C57.0859 92.117 56.9301 92.6472 56.5059 92.8769C56.0818 93.1067 55.5624 92.9476 55.3374 92.5147L48.2568 79.0485C47.5903 77.7761 46.4997 77.0162 45.3571 77.0162H41.7736C40.5963 77.0162 39.497 77.8114 38.8305 79.1368L32.1222 92.5058C31.9664 92.8151 31.6634 92.983 31.3518 92.983V93.0007Z" fill="#173AAC"/>
</g>
</g>
<defs>
<clipPath id="clip0_16108_106944">
<rect width="72" height="87" fill="white" transform="translate(12.5 6)"/>
</clipPath>
</defs>
</svg>
